<svg width="100" height="100" viewBox="0 0 100 100" fill="none" xmlns="http://www.w3.org/2000/svg">
<rect width="100" height="100" rx="20" fill="url(#paint0_linear_10_4)"/>
<path d="M24.09 51.55C24.09 48.19 23.19 47.08 19.65 47.08H16.92C15.21 47.08 14.52 48.49 14.52 49.69C14.52 50.89 15.18 52.21 16.92 52.21H17.91C18.48 52.21 18.6 52.3 18.6 52.9V53.26C18.6 55.39 16.71 56.38 14.67 56.38C12.51 56.38 10.38 55.06 10.38 52.3V46.3C10.38 43.54 12.66 42.22 14.76 42.22C16.08 42.22 17.13 42.34 17.85 42.61C18.3 42.79 18.81 43.12 19.5 43.24C20.52 43.42 21.63 43 22.23 41.95C22.95 40.69 22.35 39.25 21.12 38.38C19.95 37.54 17.52 36.91 14.76 36.91C9.48 36.91 4.26 39.4 4.26 46.03V52.57C4.26 59.14 9.48 61.69 14.67 61.69C19.8 61.69 24.09 59.26 24.09 53.17V51.55ZM26.1155 53.44C26.1155 59.89 30.8255 61.75 34.8155 61.75C38.8055 61.75 43.5155 59.89 43.5155 53.44V50.68C43.5155 44.23 38.8055 42.37 34.8155 42.37C30.7355 42.37 26.1155 44.23 26.1155 50.68V53.44ZM37.4855 53.71C37.4855 55.84 36.1055 56.68 34.8155 56.68C33.5255 56.68 32.1455 55.84 32.1455 53.71V50.41C32.1455 48.28 33.5255 47.44 34.8155 47.44C36.1055 47.44 37.4855 48.28 37.4855 50.41V53.71ZM60.9855 61.18V52.18H68.6955C70.4655 52.18 71.1255 50.83 71.1255 49.6C71.1255 48.37 70.4355 46.93 68.6955 46.93H60.9855V43.15C60.9855 42.43 61.1655 42.28 61.8555 42.28H69.4755C71.2455 42.28 71.9055 40.93 71.9055 39.7C71.9055 38.47 71.2155 37.03 69.4755 37.03H59.4855C55.8855 37.03 54.8055 38.32 54.8055 41.77V61.18H60.9855ZM74.1422 61.18H80.3222V45.64C80.3222 43.57 78.9122 42.64 77.2322 42.64C75.5522 42.64 74.1422 43.57 74.1422 45.64V61.18ZM74.1122 38.59C74.1122 40.57 75.5522 41.35 77.2322 41.35C78.9122 41.35 80.3522 40.57 80.3522 38.59C80.3522 36.61 78.9122 35.83 77.2322 35.83C75.5522 35.83 74.1122 36.61 74.1122 38.59ZM85.6144 55.54C85.6144 60.07 87.9244 61.69 91.9144 61.69C92.9344 61.69 94.0744 61.33 94.7644 60.88C95.6044 60.34 96.1444 59.32 95.8744 58.09C95.6644 57.1 94.8244 56.44 93.8344 56.44C93.2344 56.44 92.9644 56.59 92.5144 56.56C92.0044 56.53 91.5544 56.32 91.5544 55.42V47.98H93.3244C95.2144 47.98 95.9644 46.78 95.9644 45.52C95.9644 44.29 95.2444 43 93.3244 43H91.5544V39.88C91.5544 37.84 90.0844 36.91 88.5844 36.91C87.0844 36.91 85.6144 37.84 85.6144 39.88V43H84.6244C82.7044 43 81.9844 44.29 81.9844 45.52C81.9844 46.78 82.7344 47.98 84.6244 47.98H85.6144V55.54Z" fill="white"/>
<defs>
<linearGradient id="paint0_linear_10_4" x1="0" y1="0" x2="92.5" y2="100" gradientUnits="userSpaceOnUse">
<stop stop-color="#DD517E"/>
<stop offset="1" stop-color="#7A98EE"/>
<stop offset="1" stop-color="#556CC9"/>
</linearGradient>
</defs>
</svg>
